<svg width="49" height="48" viewBox="0 0 49 48" fill="none" xmlns="http://www.w3.org/2000/svg">
<path d="M0.660034 24C0.660034 10.7452 11.4052 0 24.66 0C37.9149 0 48.66 10.7452 48.66 24C48.66 37.2548 37.9149 48 24.66 48C11.4052 48 0.660034 37.2548 0.660034 24Z" fill="#FE934E" fill-opacity="0.2"/>
<path opacity="0.4" d="M28.66 30L30.66 32L34.66 28" stroke="#FC6A31" stroke-width="2" stroke-linecap="round" stroke-linejoin="round"/>
<path d="M34.66 24V20.2C34.66 19.0799 34.66 18.5198 34.442 18.092C34.2503 17.7157 33.9443 17.4097 33.568 17.218C33.1402 17 32.5801 17 31.46 17H17.86C16.7399 17 16.1799 17 15.7521 17.218C15.3757 17.4097 15.0698 17.7157 14.878 18.092C14.66 18.5198 14.66 19.0799 14.66 20.2V27.8C14.66 28.9201 14.66 29.4802 14.878 29.908C15.0698 30.2843 15.3757 30.5903 15.7521 30.782C16.1799 31 16.7399 31 17.86 31H24.66M34.66 22H14.66H34.66Z" stroke="#FC6A31" stroke-width="2" stroke-linecap="round" stroke-linejoin="round"/>
</svg>
