<svg width="24" height="24" viewBox="0 0 24 24" fill="none" xmlns="http://www.w3.org/2000/svg">
<path opacity="0.12" d="M9 15H18L14.4686 18.5314C14.2957 18.7043 14.2092 18.7908 14.1083 18.8526C14.0188 18.9075 13.9213 18.9479 13.8192 18.9724C13.7041 19 13.5818 19 13.3373 19H5L9 15Z" fill="#0A77ED"/>
<path d="M16 7.99909L2 21.9991M18 14.9991H9M6.6 18.9991H13.3373C13.5818 18.9991 13.7041 18.9991 13.8192 18.9714C13.9213 18.9469 14.0188 18.9065 14.1083 18.8517C14.2092 18.7899 14.2957 18.7034 14.4686 18.5304L19.5 13.4991C19.739 13.2601 19.8584 13.1406 19.9546 13.0348C22.0348 10.7464 22.0348 7.25177 19.9546 4.96332C19.8584 4.85753 19.739 4.73805 19.5 4.49909C19.261 4.26013 19.1416 4.14065 19.0358 4.04449C16.7473 1.96433 13.2527 1.96433 10.9642 4.04449C10.8584 4.14065 10.739 4.26013 10.5 4.49909L5.46863 9.53046C5.29568 9.70341 5.2092 9.7899 5.14736 9.89082C5.09253 9.98029 5.05213 10.0778 5.02763 10.1798C5 10.2949 5 10.4172 5 10.6618V17.3991C5 17.9591 5 18.2391 5.10899 18.4531C5.20487 18.6412 5.35785 18.7942 5.54601 18.8901C5.75992 18.9991 6.03995 18.9991 6.6 18.9991Z" stroke="#0A77ED" stroke-width="2" stroke-linecap="round" stroke-linejoin="round"/>
</svg>
