<svg width="24" height="24" viewBox="0 0 24 24" fill="none" xmlns="http://www.w3.org/2000/svg">
<path d="M8.41162 17.3011C9.07501 18.1122 9.67878 18.9665 10.2186 19.858C10.6794 20.6964 10.8716 21.2649 11.2084 22.275C11.4149 22.8332 11.6016 22.9997 12.003 22.9997C12.4404 22.9997 12.6388 22.7164 12.7921 22.2781C13.1105 21.3241 13.3603 20.5961 13.7544 19.9081C14.5278 18.58 15.4888 17.3998 16.4331 16.2655C16.6887 15.9444 18.3414 14.0742 19.0855 12.5985C19.0855 12.5985 20 10.9774 20 8.71343C20 6.59571 19.0981 5.12695 19.0981 5.12695L16.5016 5.79408L14.9247 9.77859L14.5346 10.328L14.4566 10.4275L14.3528 10.5521L14.1707 10.7512L13.9104 11.0008L12.5062 12.0983L8.99562 14.043L8.41162 17.3011Z" fill="#34A853"/>
<path d="M4.78809 12.3272C5.6449 14.2047 7.29715 15.8552 8.41503 17.3037L14.3526 10.556C14.3526 10.556 13.5161 11.6055 11.9987 11.6055C10.3085 11.6055 8.94309 10.3107 8.94309 8.67791C8.94309 7.55825 9.64521 6.78906 9.64521 6.78906L5.61465 7.8252L4.78809 12.3272Z" fill="#FBBC04"/>
<path d="M14.4191 1.34772C16.3911 1.9577 18.079 3.2383 19.1 5.12667L14.3546 10.5519C14.3546 10.5519 15.0568 9.76877 15.0568 8.65606C15.0568 6.98529 13.5903 5.73714 12.0061 5.73714C10.5081 5.73714 9.64771 6.78496 9.64771 6.78496V3.36716L14.4191 1.34766V1.34772Z" fill="#4285F4"/>
<path d="M5.87598 3.74414C7.05379 2.39219 9.12629 1 11.9835 1C13.3698 1 14.4142 1.34916 14.4142 1.34916L9.64317 6.78724H6.26285L5.87598 3.74414Z" fill="#1A73E8"/>
<path d="M4.78825 12.3262C4.78825 12.3262 4 10.8453 4 8.6999C4 6.67218 4.82163 4.89972 5.87594 3.74414L9.64582 6.78773L4.78825 12.3262Z" fill="#EA4335"/>
</svg>
