<svg width="24" height="24" viewBox="0 0 24 24" fill="none" xmlns="http://www.w3.org/2000/svg">
<path opacity="0.4" d="M5 14.2852C3.14864 15.1019 2 16.2401 2 17.4989C2 19.9842 6.47715 21.9989 12 21.9989C17.5228 21.9989 22 19.9842 22 17.4989C22 16.2401 20.8514 15.1019 19 14.2852" stroke="#181C24" stroke-width="2" stroke-linecap="round" stroke-linejoin="round"/>
<path d="M12 17C13.5 14 18 12.0637 18 8C18 4.68629 15.3137 2 12 2C8.68629 2 6 4.68629 6 8C6 12.0637 10.5 14 12 17Z" fill="#181C24"/>
<path d="M12 11C13.6569 11 15 9.65684 15 8C15 6.34316 13.6569 5 12 5C10.3431 5 9 6.34316 9 8C9 9.65684 10.3431 11 12 11Z" fill="white"/>
</svg>
