<svg width="48" height="48" viewBox="0 0 48 48" fill="none" xmlns="http://www.w3.org/2000/svg">
<path d="M0 24C0 10.7452 10.7452 0 24 0C37.2548 0 48 10.7452 48 24C48 37.2548 37.2548 48 24 48C10.7452 48 0 37.2548 0 24Z" fill="#FE934E" fill-opacity="0.2"/>
<path opacity="0.4" d="M28 20.0003V16.501C28 15.6692 28 15.2534 27.8248 14.9978C27.6717 14.7745 27.4346 14.6228 27.1678 14.5774C26.8623 14.5254 26.4847 14.6997 25.7295 15.0482L16.859 19.1423C16.1855 19.4532 15.8487 19.6086 15.6021 19.8496C15.3841 20.0627 15.2176 20.3229 15.1155 20.6101C15 20.9351 15 21.306 15 22.0478V27.0003" stroke="#FC6A31" stroke-width="2" stroke-linecap="round" stroke-linejoin="round"/>
<path d="M28.5 26.5H28.51H28.5ZM15 23.2V29.8C15 30.9201 15 31.4802 15.218 31.908C15.4097 32.2843 15.7157 32.5903 16.092 32.782C16.5198 33 17.0799 33 18.2 33H29.8C30.9201 33 31.4802 33 31.908 32.782C32.2843 32.5903 32.5903 32.2843 32.782 31.908C33 31.4802 33 30.9201 33 29.8V23.2C33 22.0799 33 21.5198 32.782 21.092C32.5903 20.7157 32.2843 20.4097 31.908 20.218C31.4802 20 30.9201 20 29.8 20H18.2C17.0799 20 16.5198 20 16.092 20.218C15.7157 20.4097 15.4097 20.7157 15.218 21.092C15 21.5198 15 22.0799 15 23.2ZM29 26.5C29 26.7761 28.7761 27 28.5 27C28.2239 27 28 26.7761 28 26.5C28 26.2239 28.2239 26 28.5 26C28.7761 26 29 26.2239 29 26.5Z" stroke="#FC6A31" stroke-width="2" stroke-linecap="round" stroke-linejoin="round"/>
</svg>
