<svg width="16" height="16" viewBox="0 0 16 16" fill="none" xmlns="http://www.w3.org/2000/svg">
<g clip-path="url(#clip0_1999_17678)">
<path opacity="0.12" d="M4.92053 6.56825C5.38453 7.53463 6.01706 8.44043 6.81809 9.2415C7.61916 10.0425 8.52489 10.675 9.49136 11.139C9.57449 11.179 9.61602 11.1989 9.66862 11.2142C9.85549 11.2688 10.085 11.2296 10.2433 11.1162C10.2878 11.0844 10.326 11.0462 10.4022 10.97C10.6352 10.737 10.7518 10.6204 10.869 10.5442C11.3109 10.2569 11.8806 10.2569 12.3226 10.5442C12.4397 10.6204 12.5562 10.737 12.7894 10.97L12.9192 11.1C13.2736 11.4542 13.4507 11.6314 13.5469 11.8216C13.7383 12.2 13.7383 12.6469 13.5469 13.0252C13.4507 13.2155 13.2736 13.3926 12.9192 13.747L12.8142 13.852C12.4611 14.2051 12.2846 14.3816 12.0445 14.5165C11.7782 14.6661 11.3645 14.7737 11.059 14.7728C10.7838 14.772 10.5956 14.7186 10.2193 14.6118C8.19702 14.0378 6.28878 12.9548 4.69679 11.3628C3.1048 9.77083 2.02182 7.86256 1.44784 5.8403C1.34104 5.46401 1.28763 5.27586 1.28681 5.00056C1.2859 4.69508 1.39348 4.28142 1.54309 4.01508C1.67792 3.77506 1.85446 3.59852 2.20755 3.24544L2.31264 3.14035C2.66693 2.78605 2.84408 2.6089 3.03433 2.51268C3.41271 2.3213 3.85955 2.3213 4.23792 2.51268C4.42818 2.6089 4.60532 2.78605 4.95962 3.14035L5.08954 3.27026C5.3226 3.50333 5.43914 3.61986 5.51533 3.73705C5.80266 4.17898 5.80266 4.7487 5.51533 5.19062C5.43914 5.30781 5.3226 5.42435 5.08954 5.65742C5.01332 5.73362 4.97522 5.77173 4.94333 5.81627C4.82999 5.97456 4.79085 6.20406 4.84534 6.39096C4.86067 6.44356 4.88062 6.48512 4.92053 6.56825Z" fill="#FC6A31"/>
<path d="M9.36676 4.00065C10.018 4.1277 10.6164 4.44616 11.0855 4.91528C11.5546 5.38439 11.8731 5.98282 12.0001 6.63398M9.36676 1.33398C10.7196 1.48428 11.9812 2.0901 12.9443 3.05199C13.9074 4.01388 14.5148 5.27466 14.6668 6.62732M6.81809 9.24272C6.01706 8.44165 5.38453 7.53585 4.92053 6.56947C4.88062 6.48634 4.86067 6.44478 4.84534 6.39218C4.79085 6.20528 4.82999 5.97578 4.94333 5.81749C4.97522 5.77295 5.01332 5.73484 5.08954 5.65864C5.3226 5.42556 5.43914 5.30903 5.51533 5.19184C5.80266 4.74992 5.80266 4.1802 5.51533 3.73827C5.43914 3.62108 5.3226 3.50455 5.08954 3.27148L4.95962 3.14156C4.60532 2.78727 4.42818 2.61012 4.23792 2.5139C3.85955 2.32252 3.41271 2.32252 3.03433 2.5139C2.84408 2.61012 2.66693 2.78727 2.31264 3.14156L2.20755 3.24666C1.85446 3.59974 1.67792 3.77628 1.54309 4.0163C1.39348 4.28264 1.2859 4.6963 1.28681 5.00178C1.28763 5.27708 1.34104 5.46523 1.44784 5.84152C2.02182 7.86378 3.1048 9.77205 4.69679 11.364C6.28878 12.956 8.19702 14.039 10.2193 14.613C10.5956 14.7198 10.7838 14.7732 11.059 14.774C11.3645 14.7749 11.7782 14.6673 12.0445 14.5177C12.2846 14.3829 12.4611 14.2063 12.8142 13.8533L12.9192 13.7482C13.2736 13.3939 13.4507 13.2167 13.5469 13.0265C13.7383 12.6481 13.7383 12.2013 13.5469 11.8229C13.4507 11.6327 13.2736 11.4555 12.9192 11.1012L12.7894 10.9713C12.5562 10.7382 12.4397 10.6217 12.3226 10.5455C11.8806 10.2581 11.3109 10.2581 10.869 10.5455C10.7518 10.6217 10.6352 10.7382 10.4022 10.9713C10.326 11.0475 10.2878 11.0856 10.2433 11.1175C10.085 11.2309 9.85549 11.27 9.66862 11.2155C9.61602 11.2001 9.57449 11.1802 9.49136 11.1403C8.52489 10.6763 7.61916 10.0437 6.81809 9.24272Z" stroke="#FC6A31" stroke-width="1.33333" stroke-linecap="round" stroke-linejoin="round"/>
</g>
<defs>
<clipPath id="clip0_1999_17678">
<rect width="16" height="16" fill="white"/>
</clipPath>
</defs>
</svg>
