<svg width="49" height="48" viewBox="0 0 49 48" fill="none" xmlns="http://www.w3.org/2000/svg">
<path d="M0.330017 24C0.330017 10.7452 11.0752 0 24.33 0C37.5849 0 48.33 10.7452 48.33 24C48.33 37.2548 37.5849 48 24.33 48C11.0752 48 0.330017 37.2548 0.330017 24Z" fill="#FE934E" fill-opacity="0.2"/>
<path opacity="0.4" d="M34.33 34L32.83 32.5L34.33 34ZM33.83 30C33.83 31.933 32.263 33.5 30.33 33.5C28.397 33.5 26.83 31.933 26.83 30C26.83 28.067 28.397 26.5 30.33 26.5C32.263 26.5 33.83 28.067 33.83 30Z" stroke="#FC6A31" stroke-width="2" stroke-linecap="round" stroke-linejoin="round"/>
<path d="M34.33 24V20.2C34.33 19.0799 34.33 18.5198 34.112 18.092C33.9203 17.7157 33.6143 17.4097 33.238 17.218C32.8102 17 32.2501 17 31.13 17H17.53C16.4099 17 15.8499 17 15.422 17.218C15.0457 17.4097 14.7397 17.7157 14.548 18.092C14.33 18.5198 14.33 19.0799 14.33 20.2V27.8C14.33 28.9201 14.33 29.4802 14.548 29.908C14.7397 30.2843 15.0457 30.5903 15.422 30.782C15.8499 31 16.4099 31 17.53 31H22.83M34.33 22H14.33H34.33Z" stroke="#FC6A31" stroke-width="2" stroke-linecap="round" stroke-linejoin="round"/>
</svg>
